<mxfile host="app.diagrams.net" modified="2022-10-25T13:34:57.861Z" agent="5.0 (Windows NT 10.0; Win64; x64) AppleWebKit/537.36 (KHTML, like Gecko) Chrome/106.0.0.0 Safari/537.36 Edg/106.0.1370.52" etag="rvDnXEfolpVKh111v3Mh" version="20.5.1" type="github">
  <diagram id="C5RBs43oDa-KdzZeNtuy" name="Page-1">
    <mxGraphModel dx="1022" dy="460" grid="1" gridSize="10" guides="1" tooltips="1" connect="1" arrows="1" fold="1" page="1" pageScale="1" pageWidth="827" pageHeight="1169" math="0" shadow="0">
      <root>
        <mxCell id="WIyWlLk6GJQsqaUBKTNV-0" />
        <mxCell id="WIyWlLk6GJQsqaUBKTNV-1" parent="WIyWlLk6GJQsqaUBKTNV-0" />
        <mxCell id="k69kpjNW1gF0QXOxHMaF-0" value="QUÁ TRÌNH NÂNG BẬC LƯƠNG" style="swimlane;fontStyle=0;childLayout=stackLayout;horizontal=1;startSize=26;fillColor=#dae8fc;horizontalStack=0;resizeParent=1;resizeParentMax=0;resizeLast=0;collapsible=1;marginBottom=0;strokeColor=#6c8ebf;" parent="WIyWlLk6GJQsqaUBKTNV-1" vertex="1">
          <mxGeometry x="50" y="399" width="190" height="160" as="geometry" />
        </mxCell>
        <mxCell id="k69kpjNW1gF0QXOxHMaF-1" value="+ mã số quyết định" style="text;strokeColor=none;fillColor=none;align=left;verticalAlign=top;spacingLeft=4;spacingRight=4;overflow=hidden;rotatable=0;points=[[0,0.5],[1,0.5]];portConstraint=eastwest;" parent="k69kpjNW1gF0QXOxHMaF-0" vertex="1">
          <mxGeometry y="26" width="190" height="26" as="geometry" />
        </mxCell>
        <mxCell id="k69kpjNW1gF0QXOxHMaF-2" value="+ ngày quyết định" style="text;strokeColor=none;fillColor=none;align=left;verticalAlign=top;spacingLeft=4;spacingRight=4;overflow=hidden;rotatable=0;points=[[0,0.5],[1,0.5]];portConstraint=eastwest;" parent="k69kpjNW1gF0QXOxHMaF-0" vertex="1">
          <mxGeometry y="52" width="190" height="26" as="geometry" />
        </mxCell>
        <mxCell id="k69kpjNW1gF0QXOxHMaF-3" value="+ ngày hiệu lực&#xa;&#xa;+ hệ số bậc lương mới&#xa;&#xa;+ lý do nâng bậc" style="text;strokeColor=none;fillColor=none;align=left;verticalAlign=top;spacingLeft=4;spacingRight=4;overflow=hidden;rotatable=0;points=[[0,0.5],[1,0.5]];portConstraint=eastwest;" parent="k69kpjNW1gF0QXOxHMaF-0" vertex="1">
          <mxGeometry y="78" width="190" height="82" as="geometry" />
        </mxCell>
        <mxCell id="k69kpjNW1gF0QXOxHMaF-4" value="BỘ MÔN" style="swimlane;fontStyle=0;childLayout=stackLayout;horizontal=1;startSize=26;fillColor=#dae8fc;horizontalStack=0;resizeParent=1;resizeParentMax=0;resizeLast=0;collapsible=1;marginBottom=0;strokeColor=#6c8ebf;" parent="WIyWlLk6GJQsqaUBKTNV-1" vertex="1">
          <mxGeometry x="590" y="160" width="160" height="104" as="geometry" />
        </mxCell>
        <mxCell id="k69kpjNW1gF0QXOxHMaF-5" value="+ mã bộ môn" style="text;strokeColor=none;fillColor=none;align=left;verticalAlign=top;spacingLeft=4;spacingRight=4;overflow=hidden;rotatable=0;points=[[0,0.5],[1,0.5]];portConstraint=eastwest;" parent="k69kpjNW1gF0QXOxHMaF-4" vertex="1">
          <mxGeometry y="26" width="160" height="26" as="geometry" />
        </mxCell>
        <mxCell id="k69kpjNW1gF0QXOxHMaF-6" value="+ tên bộ môn" style="text;strokeColor=none;fillColor=none;align=left;verticalAlign=top;spacingLeft=4;spacingRight=4;overflow=hidden;rotatable=0;points=[[0,0.5],[1,0.5]];portConstraint=eastwest;" parent="k69kpjNW1gF0QXOxHMaF-4" vertex="1">
          <mxGeometry y="52" width="160" height="26" as="geometry" />
        </mxCell>
        <mxCell id="k69kpjNW1gF0QXOxHMaF-7" value="+ các lĩnh vực nghiên cứu" style="text;strokeColor=none;fillColor=none;align=left;verticalAlign=top;spacingLeft=4;spacingRight=4;overflow=hidden;rotatable=0;points=[[0,0.5],[1,0.5]];portConstraint=eastwest;" parent="k69kpjNW1gF0QXOxHMaF-4" vertex="1">
          <mxGeometry y="78" width="160" height="26" as="geometry" />
        </mxCell>
        <mxCell id="k69kpjNW1gF0QXOxHMaF-8" value="KHOA" style="swimlane;fontStyle=0;childLayout=stackLayout;horizontal=1;startSize=26;fillColor=#dae8fc;horizontalStack=0;resizeParent=1;resizeParentMax=0;resizeLast=0;collapsible=1;marginBottom=0;strokeColor=#6c8ebf;" parent="WIyWlLk6GJQsqaUBKTNV-1" vertex="1">
          <mxGeometry x="80" y="160" width="160" height="104" as="geometry" />
        </mxCell>
        <mxCell id="k69kpjNW1gF0QXOxHMaF-9" value="+ mã khoa" style="text;strokeColor=none;fillColor=none;align=left;verticalAlign=top;spacingLeft=4;spacingRight=4;overflow=hidden;rotatable=0;points=[[0,0.5],[1,0.5]];portConstraint=eastwest;" parent="k69kpjNW1gF0QXOxHMaF-8" vertex="1">
          <mxGeometry y="26" width="160" height="26" as="geometry" />
        </mxCell>
        <mxCell id="k69kpjNW1gF0QXOxHMaF-10" value="+ tên khoa" style="text;strokeColor=none;fillColor=none;align=left;verticalAlign=top;spacingLeft=4;spacingRight=4;overflow=hidden;rotatable=0;points=[[0,0.5],[1,0.5]];portConstraint=eastwest;" parent="k69kpjNW1gF0QXOxHMaF-8" vertex="1">
          <mxGeometry y="52" width="160" height="26" as="geometry" />
        </mxCell>
        <mxCell id="k69kpjNW1gF0QXOxHMaF-11" value="+ mô tả" style="text;strokeColor=none;fillColor=none;align=left;verticalAlign=top;spacingLeft=4;spacingRight=4;overflow=hidden;rotatable=0;points=[[0,0.5],[1,0.5]];portConstraint=eastwest;" parent="k69kpjNW1gF0QXOxHMaF-8" vertex="1">
          <mxGeometry y="78" width="160" height="26" as="geometry" />
        </mxCell>
        <mxCell id="k69kpjNW1gF0QXOxHMaF-12" value="GIẢNG VIÊN" style="swimlane;fontStyle=0;childLayout=stackLayout;horizontal=1;startSize=26;fillColor=#dae8fc;horizontalStack=0;resizeParent=1;resizeParentMax=0;resizeLast=0;collapsible=1;marginBottom=0;strokeColor=#6c8ebf;" parent="WIyWlLk6GJQsqaUBKTNV-1" vertex="1">
          <mxGeometry x="334" y="399" width="160" height="340" as="geometry" />
        </mxCell>
        <mxCell id="k69kpjNW1gF0QXOxHMaF-13" value="+ mã giảng viên&#xa;&#xa;+ mã khoa&#xa;&#xa;+ họ tên&#xa;&#xa;+ giới tính&#xa;&#xa;+ địa chỉ&#xa;&#xa;+ email&#xa;&#xa;+ sđt&#xa;&#xa;+ địa chỉ website&#xa;&#xa;+ học vị&#xa;&#xa;+ chức vị hiện tại&#xa;&#xa;+ ngày bắt đầu vào làm" style="text;strokeColor=none;fillColor=none;align=left;verticalAlign=top;spacingLeft=4;spacingRight=4;overflow=hidden;rotatable=0;points=[[0,0.5],[1,0.5]];portConstraint=eastwest;" parent="k69kpjNW1gF0QXOxHMaF-12" vertex="1">
          <mxGeometry y="26" width="160" height="314" as="geometry" />
        </mxCell>
        <mxCell id="k69kpjNW1gF0QXOxHMaF-16" value="BẰNG CẤP" style="swimlane;fontStyle=0;childLayout=stackLayout;horizontal=1;startSize=26;fillColor=#dae8fc;horizontalStack=0;resizeParent=1;resizeParentMax=0;resizeLast=0;collapsible=1;marginBottom=0;strokeColor=#6c8ebf;" parent="WIyWlLk6GJQsqaUBKTNV-1" vertex="1">
          <mxGeometry x="590" y="399" width="160" height="140" as="geometry">
            <mxRectangle x="590" y="360" width="90" height="30" as="alternateBounds" />
          </mxGeometry>
        </mxCell>
        <mxCell id="k69kpjNW1gF0QXOxHMaF-17" value="+ ngành nghề" style="text;strokeColor=none;fillColor=none;align=left;verticalAlign=top;spacingLeft=4;spacingRight=4;overflow=hidden;rotatable=0;points=[[0,0.5],[1,0.5]];portConstraint=eastwest;" parent="k69kpjNW1gF0QXOxHMaF-16" vertex="1">
          <mxGeometry y="26" width="160" height="26" as="geometry" />
        </mxCell>
        <mxCell id="k69kpjNW1gF0QXOxHMaF-18" value="+ bậc đào tạo" style="text;strokeColor=none;fillColor=none;align=left;verticalAlign=top;spacingLeft=4;spacingRight=4;overflow=hidden;rotatable=0;points=[[0,0.5],[1,0.5]];portConstraint=eastwest;" parent="k69kpjNW1gF0QXOxHMaF-16" vertex="1">
          <mxGeometry y="52" width="160" height="26" as="geometry" />
        </mxCell>
        <mxCell id="k69kpjNW1gF0QXOxHMaF-19" value="+ nơi cấp&#xa;&#xa;+ nghành cấp" style="text;strokeColor=none;fillColor=none;align=left;verticalAlign=top;spacingLeft=4;spacingRight=4;overflow=hidden;rotatable=0;points=[[0,0.5],[1,0.5]];portConstraint=eastwest;" parent="k69kpjNW1gF0QXOxHMaF-16" vertex="1">
          <mxGeometry y="78" width="160" height="62" as="geometry" />
        </mxCell>
        <mxCell id="4v-z33Maw3NoQXkZHaOn-1" value="" style="endArrow=none;html=1;rounded=0;exitX=0.413;exitY=-0.001;exitDx=0;exitDy=0;entryX=1;entryY=0.5;entryDx=0;entryDy=0;exitPerimeter=0;" edge="1" parent="WIyWlLk6GJQsqaUBKTNV-1" source="k69kpjNW1gF0QXOxHMaF-12" target="k69kpjNW1gF0QXOxHMaF-10">
          <mxGeometry width="50" height="50" relative="1" as="geometry">
            <mxPoint x="470" y="370" as="sourcePoint" />
            <mxPoint x="520" y="320" as="targetPoint" />
            <Array as="points">
              <mxPoint x="400" y="225" />
            </Array>
          </mxGeometry>
        </mxCell>
        <mxCell id="4v-z33Maw3NoQXkZHaOn-2" value="(1-n)" style="edgeLabel;html=1;align=center;verticalAlign=middle;resizable=0;points=[];" vertex="1" connectable="0" parent="4v-z33Maw3NoQXkZHaOn-1">
          <mxGeometry x="0.8478" y="-2" relative="1" as="geometry">
            <mxPoint x="-3" y="-7" as="offset" />
          </mxGeometry>
        </mxCell>
        <mxCell id="4v-z33Maw3NoQXkZHaOn-3" value="" style="endArrow=none;html=1;rounded=0;exitX=0.654;exitY=0.001;exitDx=0;exitDy=0;entryX=0;entryY=0.5;entryDx=0;entryDy=0;exitPerimeter=0;" edge="1" parent="WIyWlLk6GJQsqaUBKTNV-1" source="k69kpjNW1gF0QXOxHMaF-12" target="k69kpjNW1gF0QXOxHMaF-6">
          <mxGeometry width="50" height="50" relative="1" as="geometry">
            <mxPoint x="470" y="370" as="sourcePoint" />
            <mxPoint x="520" y="320" as="targetPoint" />
            <Array as="points">
              <mxPoint x="440" y="225" />
            </Array>
          </mxGeometry>
        </mxCell>
        <mxCell id="4v-z33Maw3NoQXkZHaOn-4" value="(1-n)" style="edgeLabel;html=1;align=center;verticalAlign=middle;resizable=0;points=[];" vertex="1" connectable="0" parent="4v-z33Maw3NoQXkZHaOn-3">
          <mxGeometry x="0.8924" y="-2" relative="1" as="geometry">
            <mxPoint y="-11" as="offset" />
          </mxGeometry>
        </mxCell>
        <mxCell id="4v-z33Maw3NoQXkZHaOn-7" value="(1-1)" style="edgeLabel;html=1;align=center;verticalAlign=middle;resizable=0;points=[];" vertex="1" connectable="0" parent="4v-z33Maw3NoQXkZHaOn-3">
          <mxGeometry x="-0.874" relative="1" as="geometry">
            <mxPoint x="18" y="3" as="offset" />
          </mxGeometry>
        </mxCell>
        <mxCell id="4v-z33Maw3NoQXkZHaOn-8" value="(1-1)" style="edgeLabel;html=1;align=center;verticalAlign=middle;resizable=0;points=[];" vertex="1" connectable="0" parent="4v-z33Maw3NoQXkZHaOn-3">
          <mxGeometry x="-0.7953" y="2" relative="1" as="geometry">
            <mxPoint x="-57" y="16" as="offset" />
          </mxGeometry>
        </mxCell>
        <mxCell id="4v-z33Maw3NoQXkZHaOn-5" value="" style="endArrow=none;html=1;rounded=0;entryX=0;entryY=0.5;entryDx=0;entryDy=0;exitX=0.996;exitY=0.126;exitDx=0;exitDy=0;exitPerimeter=0;" edge="1" parent="WIyWlLk6GJQsqaUBKTNV-1" source="k69kpjNW1gF0QXOxHMaF-13" target="k69kpjNW1gF0QXOxHMaF-18">
          <mxGeometry width="50" height="50" relative="1" as="geometry">
            <mxPoint x="500" y="464" as="sourcePoint" />
            <mxPoint x="574" y="460" as="targetPoint" />
          </mxGeometry>
        </mxCell>
        <mxCell id="4v-z33Maw3NoQXkZHaOn-6" value="(1-n)" style="edgeLabel;html=1;align=center;verticalAlign=middle;resizable=0;points=[];" vertex="1" connectable="0" parent="4v-z33Maw3NoQXkZHaOn-5">
          <mxGeometry x="-0.7731" y="-2" relative="1" as="geometry">
            <mxPoint x="3" y="-11" as="offset" />
          </mxGeometry>
        </mxCell>
        <mxCell id="4v-z33Maw3NoQXkZHaOn-9" value="" style="endArrow=none;html=1;rounded=0;entryX=0;entryY=0.5;entryDx=0;entryDy=0;exitX=0.996;exitY=0.126;exitDx=0;exitDy=0;exitPerimeter=0;" edge="1" parent="WIyWlLk6GJQsqaUBKTNV-1">
          <mxGeometry width="50" height="50" relative="1" as="geometry">
            <mxPoint x="239.0000000000001" y="464.56399999999996" as="sourcePoint" />
            <mxPoint x="335.64" y="464" as="targetPoint" />
          </mxGeometry>
        </mxCell>
        <mxCell id="4v-z33Maw3NoQXkZHaOn-11" value="(n-n)" style="edgeLabel;html=1;align=center;verticalAlign=middle;resizable=0;points=[];" vertex="1" connectable="0" parent="4v-z33Maw3NoQXkZHaOn-9">
          <mxGeometry x="-0.7444" y="3" relative="1" as="geometry">
            <mxPoint x="3" y="-6" as="offset" />
          </mxGeometry>
        </mxCell>
      </root>
    </mxGraphModel>
  </diagram>
</mxfile>
